<svg xmlns="http://www.w3.org/2000/svg" viewBox="0 0 512 512">
  <defs>
    <linearGradient id="g" x1="0" y1="0" x2="1" y2="1">
      <stop offset="0%" stop-color="#0d9488"/>
      <stop offset="50%" stop-color="#0f3d3a"/>
      <stop offset="100%" stop-color="#062523"/>
    </linearGradient>
    <linearGradient id="cross" x1="0" y1="0" x2="0" y2="1">
      <stop offset="0%" stop-color="#ffffff"/>
      <stop offset="100%" stop-color="#ccfbf1"/>
    </linearGradient>
  </defs>
  <rect width="512" height="512" rx="112" fill="url(#g)"/>
  <g transform="translate(96, 96)">
    <path d="M160 0 C 100 0, 60 50, 60 100 C 60 160, 100 200, 160 220 C 220 200, 260 160, 260 100 C 260 50, 220 0, 160 0 Z" fill="url(#cross)" opacity="0.95"/>
    <path d="M160 50 C 140 80, 130 110, 130 140 C 130 170, 140 195, 160 220 C 180 195, 190 170, 190 140 C 190 110, 180 80, 160 50 Z" fill="#0d9488" opacity="0.18"/>
  </g>
  <g transform="translate(208, 168)" fill="#ffffff">
    <rect x="0" y="22" width="96" height="36" rx="6"/>
    <rect x="30" y="-8" width="36" height="96" rx="6"/>
  </g>
</svg>
